  <svg viewBox="0 0 200 200" xmlns="http://www.w3.org/2000/svg">
        <path
          fill="#008080"
          d="M38.7,-64.9C52,-59.4,65.8,-52.7,73.2,-41.7C80.6,-30.7,81.6,-15.3,79.4,-1.3C77.2,12.8,71.7,25.5,64.2,36.4C56.7,47.2,47.1,56.2,36.1,65.5C25.1,74.9,12.5,84.6,-1.7,87.6C-16,90.5,-31.9,86.7,-44.4,78.2C-57,69.7,-66,56.6,-73.1,42.7C-80.3,28.9,-85.4,14.5,-85.6,-0.1C-85.9,-14.7,-81.2,-29.5,-72.9,-41.1C-64.5,-52.8,-52.4,-61.4,-39.7,-67.2C-26.9,-72.9,-13.5,-76,-0.4,-75.3C12.7,-74.7,25.4,-70.4,38.7,-64.9Z"
          transform="translate(100 100)"
        />
      </svg>